<svg width="1440" height="763" viewBox="0 0 1440 763" fill="none" xmlns="http://www.w3.org/2000/svg">
<path fill-rule="evenodd" clip-rule="evenodd" d="M381.583 751.607C183.378 713.354 158.308 609.048 6.10288 531.455C-146.077 453.874 -50.4099 362.376 -126.064 273.5C-224.58 157.766 -519.078 43.339 -498.555 -61.4016C-477.405 -169.345 -273.798 -245.896 -24.2579 -246.078C218.937 -246.256 463.114 -119.143 720.298 -62.2917C949.598 -11.6041 1188.3 -7.48572 1396.64 68.0161C1643.71 157.56 1923.53 271.766 1976.66 393.029C2029.71 514.108 1806.62 578.846 1651.2 649C1525.61 705.683 1198.67 717.49 989.303 715.157C799.745 713.045 581.768 790.242 381.583 751.607Z" fill="#548084"/>
</svg>
